<?xml version="1.0" encoding="utf-8"?>
<!-- Generator: Adobe Illustrator 22.0.0, SVG Export Plug-In . SVG Version: 6.00 Build 0)  -->
<svg version="1.1" id="Layer_1" xmlns="http://www.w3.org/2000/svg" xmlns:xlink="http://www.w3.org/1999/xlink" x="0px" y="0px"
	 viewBox="0 0 388.2 348" style="enable-background:new 0 0 388.2 348;" xml:space="preserve">
<style type="text/css">
	.st0{fill:#FFFFFF;}
</style>
<path class="st0" d="M321.5,251.5L321.5,251.5l0.1,0c4.1,0.2,8.3,0,12.4,0.1c0.3,0,0.5-0.1,0.7-0.2c0.6-0.1,1,0.2,1.1,0.9
	c0,0.2,0,0.5,0,0.7c0,14.1,0,28.2,0,42.4c0,2.5,0.6,4.9,1.8,7.1c0.8,1.3,1.6,2.7,3,3.7c0.8,0.5,1.5,1.2,2.2,1.8
	c1,0.8,2.1,1.2,3.3,1.5c0.5,0.1,0.9,0.2,1.4,0.3c2,0.5,3.9,0.4,5.9,0c1.9-0.3,3.4-1.5,5.2-2.1l0,0c0.8-0.9,1.8-1.6,2.6-2.5
	c1.1-1.3,2-2.8,2.8-4.3l0,0c0.1-0.9,0.5-1.7,0.7-2.6c0.3-1.2,0.2-2.4,0.2-3.6c0-13.6,0-27.2,0-40.8c0-2.6,0-2.1,2.2-2.1
	c4-0.1,8.1,0.1,12.1-0.1c0.5,0,0.8,0.2,0.7,0.7c0,0.2,0,0.5,0,0.7c0,14.3,0,28.7,0,43c0,3.6-0.8,7.1-2,10.5
	c-0.9,2.3-2.1,4.3-3.4,6.3c-1.9,2.8-4.4,5.2-7.2,7.2c-2.1,1.5-4.4,2.6-6.8,3.4c-4.3,1.5-8.6,2-13.1,1.6c-2.8-0.3-5.5-1.2-8.2-2.1
	c-1.4-0.5-2.7-1.1-4-1.9c-1.5-0.9-2.9-1.9-4.2-3.1c-1.2-1.1-2.3-2.3-3.4-3.5c-1.6-1.8-2.8-3.8-3.8-5.9c-0.3-0.8-0.9-1.4-0.9-2.4l0,0
	l0,0c-0.3-0.1-0.1-0.4-0.2-0.6l0,0c-0.8-1.5-1.1-3.1-1.4-4.8c-0.7-4.1-0.4-8.2-0.4-12.4c0-11.6,0-23.2,0-34.8c0-0.4,0-0.9,0-1.3
	C320.7,251.7,320.9,251.4,321.5,251.5z"/>
<path class="st0" d="M306.9,47.2c0-0.1-0.1-0.1-0.2-0.2c-0.1-0.1-0.2-0.1-0.3-0.2c-0.1,0-0.1-0.1-0.2-0.1c-0.1,0-0.2-0.1-0.3-0.2
	c-0.1,0-0.1-0.1-0.2-0.1c-0.1-0.1-0.2-0.1-0.3-0.2c-0.1,0-0.1-0.1-0.2-0.1c-0.1-0.1-0.2-0.1-0.3-0.1c-0.1,0-0.1-0.1-0.2-0.1
	c-0.1,0-0.2-0.1-0.3-0.1c-0.1,0-0.1-0.1-0.2-0.1c-0.1-0.1-0.2-0.2-0.4-0.3c-1.8-1.3-3.7-2.1-5.7-3l0,0c-0.9-0.7-1.8-1.2-2.9-1.4l0,0
	c-0.2-0.4-0.5-0.3-0.8-0.4l0,0c-0.2-0.2-0.4-0.4-0.6-0.5c-2.6-1-5-2.3-7.6-3.4c-0.6-0.3-1.2-0.5-1.8-0.6c0,0,0,0,0,0l0,0
	c0,0,0,0,0,0c-0.1-0.2-0.4-0.1-0.6-0.2l0,0c-0.1-0.1-0.3-0.1-0.4-0.2l0,0c-0.5-0.2-0.9-0.6-1.4-0.8c-2.5-0.8-4.8-2-7.3-2.7
	c-1.3-0.4-2.5-1.2-4-1.3l0,0c-0.6-0.2-1.2-0.4-1.9-0.6l0,0c-1.4-0.7-3-1-4.5-1.5c-1.4-0.4-2.9-0.8-4.3-1.2c-1.7-0.5-3.4-1-5.1-1.2
	l0,0c-0.2-0.3-0.6,0-0.8-0.2l0,0c-0.8-0.5-1.8-0.5-2.7-0.6l0,0c-0.3-0.4-0.7,0-1-0.2l0,0c-0.2-0.3-0.6-0.1-0.9-0.2
	c-0.1,0-0.2,0-0.3,0c-0.2-0.1-0.5-0.1-0.7-0.2l-0.1,0l-0.1-0.1c-0.3-0.2-0.6,0-0.9-0.2l-0.1,0l-0.1-0.1c-1.1-0.5-2.3-0.7-3.4-0.8
	c-2.4-0.2-4.7-0.9-7.1-1.1c-1.3-0.1-2.5-0.5-3.8-0.6c-1.3-0.1-2.5-0.2-3.8-0.3c-2.5-0.2-4.9-0.4-7.4-0.6c-0.5,0.1-1,0-1.4,0
	c-3.4-0.2-6.8-0.3-10.2-0.4c-3.6,0-7.2,0-10.8,0.1c-4.4,0.2-8.7,0.5-13.1,0.9c-2.4,0.2-4.8,0.5-7.1,0.9c-3.2,0.4-6.4,1-9.6,1.6
	c-4.4,0.8-8.8,1.8-13.2,3c-5,1.3-10,2.8-14.9,4.5c-5.4,1.9-10.7,4-15.9,6.3c-5.8,2.6-11.4,5.4-16.9,8.5c-5,2.8-9.9,5.9-14.7,9.2
	c-5.2,3.5-10.2,7.3-15,11.3C75,70.6,71.2,74,67.5,77.6c-2.4,2.3-4.7,4.6-6.9,7c-4,4.3-7.9,8.8-11.5,13.5c-3.7,4.8-7.2,9.7-10.5,14.8
	c-3.1,4.8-5.9,9.7-8.6,14.7c-1.9,3.5-3.6,7.1-5.3,10.8c-2,4.4-3.8,8.8-5.5,13.3c-1.2,3.3-2.4,6.7-3.4,10.1c-1.3,4-2.4,8.1-3.4,12.1
	c-1.1,4.7-2.1,9.4-2.9,14.2c0,0.2-0.1,0.4-0.2,0.6c-0.1,0.2-0.2,0.4-0.2,0.6c-0.5,2.6-0.8,5.3-1.1,8c-0.4,3.7-0.8,7.4-1,11.2
	c-0.2,4.3-0.4,8.5-0.4,12.8c0,2.4,0.2,4.7,0.2,7.1c0,3.1,0.2,6.1,0.4,9.2c0.3,3.9,0.5,7.8,1.2,11.7c0.3,1.8,0.5,3.7,1,5.5l0,0l0,0.1
	c0.2,0.4,0,0.8,0.2,1.1c0,0.1,0,0.1,0,0.2c0,0.4-0.1,0.8,0.2,1.2c0,0,0,0,0,0l0,0c0,0,0,0,0,0c0,0.7,0,1.4,0.4,2.1c0,0,0,0,0,0l0,0
	c0,0,0,0,0,0c0.2,1.3,0.3,2.7,0.7,4c0.4,1.2,0.4,2.6,0.8,3.8c0.6,2,1,4,1.5,6c0.5,1.9,1.1,3.9,1.7,5.7l0,0c0.1,0.5,0.2,1,0.4,1.4
	c0,0,0,0,0,0l0,0c0,0,0,0,0,0c0.1,0.5,0.2,0.9,0.4,1.4c0.6,2.1,1.3,4.1,2,6.2c0.9,2.7,1.9,5.3,2.9,7.9c0.7,1.8,1.5,3.6,2.3,5.4
	c1,2.2,1.9,4.5,2.9,6.7c1,2.1,2.2,4.2,3.1,6.3c0.2,0.5,0.5,1,1,1.4c0,0,0,0,0,0l0,0c0,0,0,0,0,0c0.1,0.3,0.1,0.7,0.4,0.8
	c0,0,0,0,0,0c0.5,0.5,0.7,1.2,1,1.7c1.2,2,2.3,4.1,3.5,6.1c0.1,0.1,0.2,0.3,0.3,0.4c0,0.1,0.1,0.1,0.1,0.1c0.1,0,0.2,0.1,0.2,0.1
	c0,0,0.1,0,0.1,0c0.2,0,0.3,0,0.5,0c4.3,0,8.6,0,12.9,0c0.2,0,0.3,0,0.5,0c0.3,0,0.4-0.1,0.5-0.4c0.4-1.1,0.8-2.1,1.2-3.2
	c0.1-0.2,0.1-0.4,0.3-0.5c0.3-1.2,0.8-2.2,1.2-3.4c1-2.7,2-5.4,3-8.2c0-0.1,0.1-0.3,0.1-0.4c0.1-0.4,0.4-0.5,0.8-0.5
	c0.2,0,0.3,0,0.5,0c0.2,0,0.3,0,0.5,0c0.1,0,0.2,0,0.2,0c1.1,0,2.1,0,3.2,0c8.5,0,16.9,0,25.4,0c0.3,0,0.7-0.1,1,0.1l0,0
	c0.2,0,0.3,0.2,0.3,0.3c0.6,1.7,1.3,3.4,1.9,5.1c1.3,3.4,2.6,6.9,3.9,10.3c0.1,0.4,0.3,0.6,0.8,0.6c4.5,0,8.9,0,13.4,0
	c0.1,0,0.1,0,0.2,0c0.3,0,0.4-0.1,0.3-0.4c-0.1-0.2-0.2-0.4-0.2-0.7c-0.5-0.7-0.7-1.5-1-2.2c-1.7-4.2-3.4-8.4-5.1-12.6
	c-1.3-3.3-2.6-6.6-4-10c-0.1-0.3-0.3-0.5-0.3-0.9c-0.5-0.7-0.7-1.5-1-2.2c-1.7-4.2-3.4-8.4-5.1-12.6c-1.3-3.3-2.6-6.6-4-10
	c-0.1-0.3-0.3-0.5-0.3-0.9c-0.5-0.7-0.7-1.5-1-2.2c-1.7-4.2-3.4-8.4-5.1-12.6c-0.7-1.7-1.4-3.4-2-5.1c-0.1-0.2-0.2-0.4-0.2-0.6
	c0-0.1-0.1-0.2-0.2-0.2c0,0,0,0,0,0c0,0-0.1,0-0.1,0c-0.3,0-0.5,0-0.8,0c-0.9,0-1.7,0-2.6,0c-3.2,0-6.4,0-9.6,0
	c-0.3,0-0.6,0.1-0.9-0.1c0,0,0,0,0,0c0,0,0,0,0,0l0,0l-0.1,0h0l0,0c-0.4,0.1-0.5,0.4-0.6,0.7c-0.5,1.2-1,2.5-1.5,3.7
	c-0.7,1.7-1.3,3.3-2,5c0,0.1-0.1,0.2-0.2,0.2c-0.3,1.2-0.9,2.4-1.4,3.6c-1,2.4-1.9,4.9-2.9,7.3c-1.9,4.8-3.9,9.7-5.8,14.5
	c0,0.1-0.1,0.2-0.2,0.2c-0.3,1.2-0.9,2.4-1.4,3.6c-1,2.4-1.9,4.9-2.9,7.3c-1.6,3.9-3.1,7.8-4.7,11.7c0,0.1-0.1,0.2-0.2,0.3
	c-0.2,0-0.3-0.2-0.4-0.3c-1.1-2-2.1-4-3.1-6c-0.3-0.7-0.7-1.4-1-2c-0.1-0.1-0.1-0.3-0.1-0.4c0,0,0,0,0,0l0,0
	c-0.8-2.7-2.1-5.1-3.3-7.6c-1-2.2-1.4-4.5-2.7-6.6l0,0c-0.2-0.2,0-0.5-0.2-0.6c0,0,0,0,0,0l0,0c0,0,0,0,0,0c-0.2-1.5-1-2.9-1.5-4.3
	c-0.7-2.4-1.6-4.8-2.2-7.3c-0.1-0.3-0.2-0.7-0.5-0.9c0,0,0,0,0,0l0,0c0,0,0,0,0,0c-0.1-0.9-0.4-1.8-0.7-2.7c-0.5-1.5-0.8-3-1.2-4.5
	c-0.9-3.3-1.4-6.7-2.1-10.1c-0.4-2-0.6-4.1-1.1-6.1l0,0c-0.2-1-0.1-2-0.4-2.9l0-0.1l0-0.1c-0.2-0.4,0.1-0.9-0.2-1.3c0,0,0,0,0,0l0,0
	c0,0,0,0,0,0c-0.3-0.6,0.1-1.3-0.2-1.8c0,0,0,0,0,0l0,0c0,0,0,0,0,0c-0.1-0.6,0.2-1.3-0.2-1.8c0,0,0,0,0,0l0,0c0,0,0,0,0,0
	c-0.3-2-0.3-4-0.5-6c-0.2-2.7-0.4-5.4-0.5-8.1c-0.2-4-0.2-8,0-12.1c0-1,0.3-1.9,0.2-2.8c-0.1-1.2,0-2.4,0.1-3.6
	c0.1-1.8,0.4-3.7,0.5-5.5c0.1-2.5,0.6-4.9,0.7-7.4c0,0,0,0,0,0l0,0c0,0,0,0,0,0c0.3-0.5,0-1,0.2-1.5l0-0.1l0.1-0.1
	c0.3-0.9,0.3-1.9,0.4-2.9c0,0,0,0,0,0l0,0c0,0,0,0,0,0c0.6-1.2,0.6-2.6,0.8-3.9c0.4-3.2,1.3-6.4,1.8-9.6c0.4-2.2,1-4.4,1.5-6.6l0,0
	c0.4-1.2,0.8-2.4,1-3.7c0,0,0,0,0,0l0,0c0,0,0,0,0,0c0.6-0.9,0.7-2,1-3c0.9-3.4,2.2-6.6,3.2-10c0.3-1.1,1.1-2.1,1.3-3.2
	c0.3-1.5,1.2-2.9,1.7-4.4c0.8-2.2,1.9-4.4,2.6-6.6c0,0,0,0,0,0l0,0c0,0,0,0,0,0c0.4-0.2,0.3-0.6,0.4-1c0,0,0,0,0,0l0,0c0,0,0,0,0,0
	c0.1-0.1,0.2-0.2,0.2-0.3c1.2-2.3,2.2-4.6,3.4-6.9c0.3-0.7,0.8-1.3,0.9-2c0,0,0,0,0,0l0,0c0,0,0,0,0,0c0.5-0.3,0.7-0.9,0.9-1.3
	c0.6-1.2,1.2-2.4,1.9-3.6c1.6-2.6,3.1-5.3,4.8-8c1.9-3.2,4.1-6.2,6.1-9.3c1.4-2.1,3-4.2,4.6-6.2c1.6-2.1,3.3-4.1,4.9-6.1
	c0.8-1.1,1.9-1.9,2.5-3.2c1.4-1.1,2.4-2.5,3.5-3.9l0,0l0,0c1.2-0.9,2.2-2.1,3.2-3.1c3.4-3.6,6.9-7,10.6-10.4
	c2.4-2.2,4.9-4.4,7.6-6.4c2.1-1.6,4.1-3.4,6.3-5c2-1.5,4-3,6.1-4.4c2-1.3,3.9-2.6,5.9-3.9c1-0.7,2.1-1.3,3.2-2
	c1.3-0.9,2.6-1.8,4-2.4c1.5-0.7,2.8-1.5,4.2-2.3c2.6-1.5,5.2-2.9,7.8-4.1c2-1,4-2,6.1-2.8c0.9-0.3,1.7-1,2.6-1.3
	c1.7-0.5,3.2-1.3,4.8-1.9c3.6-1.4,7.2-2.8,10.8-4c3.1-1,6.2-1.9,9.3-2.8c3.7-1,7.4-2,11.1-2.8c3-0.7,6.1-1,9.1-1.7
	c1-0.2,2-0.2,3-0.4c2.6-0.6,5.2-0.7,7.8-1.1c1.5-0.2,3.1-0.2,4.6-0.4c3.1-0.4,6.3-0.6,9.5-0.6c3.5-0.1,7.1-0.3,10.6,0
	c1.5,0.1,3-0.1,4.5,0.1c2.4,0.3,4.7,0.3,7.1,0.5c2.3,0.2,4.5,0.4,6.8,0.6c2.6,0.3,5.3,0.8,7.9,1.1c3.6,0.5,7.1,1.3,10.7,1.9
	c2.7,0.4,5.2,1.4,7.9,1.9c1.7,0.3,3.3,1.1,5.1,1.4c2,0.3,3.8,1.2,5.7,1.7c1.8,0.4,3.5,1.2,5.2,1.7c1.1,0.3,2.2,0.9,3.3,1.3
	c2,0.6,3.9,1.5,5.9,2.3c1.9,0.7,3.8,1.6,5.7,2.2l0,0c0.3,0.3,0.6,0.5,1,0.6c1.1,0.3,2.2,0.9,3.2,1.5c1.5,0.8,3.2,1.3,4.7,2.2
	c0.1,0,0.3,0.1,0.4,0.1c0.1,0,0.2,0.1,0.2,0.1c0.1,0,0.2,0.1,0.2,0.1c0.1,0,0.1,0.1,0.2,0.1c0.2,0.1,0.3,0.1,0.4,0.2
	c0.1,0,0.1,0.1,0.2,0.1c0.1,0,0.2,0.1,0.3,0.1c0.1,0,0.1,0.1,0.2,0.1c0.1,0,0.2,0.1,0.3,0.1c0.1,0,0.1,0.1,0.2,0.1
	c0.1,0,0.2,0.1,0.3,0.1c0.1,0,0.1,0,0.2,0C307,47.6,307,47.4,306.9,47.2z M61.1,295.2c0.2-0.6,0.5-1.2,0.7-1.8
	c1.2-3.2,2.4-6.3,3.6-9.5c1.6-4.4,3.3-8.7,4.9-13.1c0.5-1.3,1-2.6,1.4-3.8c0-0.1,0.1-0.2,0.2-0.2c0.1,0,0.2,0.1,0.2,0.2
	c0.3,0.7,0.5,1.3,0.8,2c1.2,3.2,2.4,6.3,3.5,9.5c1.8,4.8,3.6,9.7,5.5,14.5c0.3,0.7,0.6,1.5,0.8,2.2c0.1,0.3,0,0.4-0.3,0.4
	c-0.3,0-0.5,0-0.8,0c-3.3,0-6.5,0-9.8,0c-3.3,0-6.5,0-9.8,0c-0.2,0-0.5,0-0.7,0C61.1,295.6,61,295.4,61.1,295.2z"/>
<path class="st0" d="M145.2,288.2c0-11.7,0-23.5,0-35.2c0-0.3,0-0.7,0-1c0-0.2,0.2-0.4,0.4-0.4c0.2,0,0.5,0,0.7,0
	c4.1,0,8.3,0,12.4,0c0.2,0,0.4,0,0.6,0c0.4,0,0.5,0.1,0.5,0.5c0,0.5,0,1,0,1.4c0,19.1,0,38.1,0,57.2c0,1.5-0.1,1.3,1.3,1.3
	c11.4,0,22.7,0,34.1,0c1.4,0,1.2-0.2,1.2,1.3c0,3.6,0,7.1,0,10.7c0,0.9,0,0.9-0.9,0.9c-0.2,0-0.3,0-0.5,0c-16.2,0-32.3,0-48.5,0
	c-0.2,0-0.3,0-0.5,0c-0.9,0-0.9,0-0.9-0.9C145.2,312.1,145.2,300.1,145.2,288.2z"/>
<path class="st0" d="M246.9,251.5c0.1,0,0.3,0.1,0.4,0.1c0.2,0,0.4,0.1,0.4,0.4c0,0.4,0,0.8,0,1.1c0,19.2,0,38.5,0,57.7
	c0,1.4-0.1,1.2,1.3,1.2c11.1,0,22.2,0,33.4,0c0.4,0,0.8,0,1.2,0c0.7,0,0.7,0,0.7,0.7c0,3.8,0,7.7,0,11.5c0,0.1,0,0.3,0,0.4
	c0,0.2-0.1,0.2-0.3,0.3c-0.3,0-0.6,0-0.9,0c-7.7,0-15.3,0-23,0c-8.6,0-17.2,0-25.8,0c-0.3,0-0.6,0-0.9,0c-0.2,0-0.4-0.2-0.4-0.4
	c0-0.2,0-0.5,0-0.7c0-23.7,0-47.3,0-71c0-1.4-0.1-1.3,1.3-1.3c3.9,0,7.7,0,11.6,0C246.3,251.6,246.6,251.6,246.9,251.5
	C246.9,251.5,246.9,251.5,246.9,251.5z"/>
</svg>
